<svg width="4500" height="4500" viewBox="0 0 4500 4500" fill="none" xmlns="http://www.w3.org/2000/svg">
<path d="M2579.71 792.316C2599.55 792.316 2619.38 793.969 2639.21 797.274H2668.96C2900.34 803.885 3090.4 856.772 3239.14 955.934C3387.88 1055.1 3495.31 1169.13 3561.42 1298.04C3627.53 1423.65 3660.58 1550.91 3660.58 1679.82C3660.58 1812.03 3629.18 1940.94 3566.38 2066.55C3563.07 2073.16 3559.77 2078.12 3556.46 2081.42C3691.98 2177.28 3791.14 2286.36 3853.95 2408.66C3916.75 2540.88 3948.15 2674.74 3948.15 2810.27C3948.15 2942.48 3915.1 3074.7 3848.99 3206.92C3782.88 3335.83 3675.46 3451.51 3526.71 3553.98C3377.97 3653.14 3187.91 3702.73 2956.53 3702.73H2926.78C2906.95 3706.03 2887.12 3707.68 2867.28 3707.68H874.125C784.879 3704.38 708.854 3672.98 646.052 3613.48C586.555 3550.68 555.153 3474.65 551.848 3385.41V1114.59C555.153 1025.35 586.554 950.976 646.052 891.479C708.854 828.676 784.879 795.622 874.125 792.316H2579.71ZM1221.19 2909.43C1221.19 2998.67 1267.47 3043.3 1360.02 3043.3H2986.28C3049.08 3046.6 3100.31 3035.03 3139.98 3008.59C3182.95 2982.15 3214.35 2952.4 3234.18 2919.34C3254.02 2882.99 3263.93 2846.63 3263.93 2810.27C3263.93 2787.13 3254.02 2755.73 3234.18 2716.06C3214.35 2673.09 3182.95 2638.39 3139.98 2611.94C3100.31 2585.5 3049.08 2570.62 2986.28 2567.32H1221.19V2909.43ZM1360.02 1456.7C1267.47 1456.7 1221.19 1501.33 1221.19 1590.57V1902.93H2698.71C2761.51 1899.63 2814.4 1884.75 2857.37 1858.31C2897.03 1835.17 2926.78 1808.73 2946.61 1778.98C2966.45 1745.93 2976.36 1712.87 2976.36 1679.82C2976.36 1646.76 2966.45 1615.36 2946.61 1585.61C2926.78 1552.56 2895.38 1524.46 2852.41 1501.33C2812.74 1474.88 2761.51 1460.01 2698.71 1456.7H1360.02Z" fill="#E5FFBC"/>
<path d="M2579.71 792.316C2599.55 792.316 2619.38 793.969 2639.21 797.274H2668.96C2900.34 803.885 3090.4 856.772 3239.14 955.934C3387.88 1055.1 3495.31 1169.13 3561.42 1298.04C3627.53 1423.65 3660.58 1550.91 3660.58 1679.82C3660.58 1812.03 3629.18 1940.94 3566.38 2066.55C3563.07 2073.16 3559.77 2078.12 3556.46 2081.42C3691.98 2177.28 3791.14 2286.36 3853.95 2408.66C3916.75 2540.88 3948.15 2674.74 3948.15 2810.27C3948.15 2942.48 3915.1 3074.7 3848.99 3206.92C3782.88 3335.83 3675.46 3451.51 3526.71 3553.98C3377.97 3653.14 3187.91 3702.73 2956.53 3702.73H2926.78C2906.95 3706.03 2887.12 3707.68 2867.28 3707.68H874.125C784.879 3704.38 708.854 3672.98 646.052 3613.48C586.555 3550.68 555.153 3474.65 551.848 3385.41V1114.59C555.153 1025.35 586.554 950.976 646.052 891.479C708.854 828.676 784.879 795.622 874.125 792.316H2579.71ZM1221.19 2909.43C1221.19 2998.67 1267.47 3043.3 1360.02 3043.3H2986.28C3049.08 3046.6 3100.31 3035.03 3139.98 3008.59C3182.95 2982.15 3214.35 2952.4 3234.18 2919.34C3254.02 2882.99 3263.93 2846.63 3263.93 2810.27C3263.93 2787.13 3254.02 2755.73 3234.18 2716.06C3214.35 2673.09 3182.95 2638.39 3139.98 2611.94C3100.31 2585.5 3049.08 2570.62 2986.28 2567.32H1221.19V2909.43ZM1360.02 1456.7C1267.47 1456.7 1221.19 1501.33 1221.19 1590.57V1902.93H2698.71C2761.51 1899.63 2814.4 1884.75 2857.37 1858.31C2897.03 1835.17 2926.78 1808.73 2946.61 1778.98C2966.45 1745.93 2976.36 1712.87 2976.36 1679.82C2976.36 1646.76 2966.45 1615.36 2946.61 1585.61C2926.78 1552.56 2895.38 1524.46 2852.41 1501.33C2812.74 1474.88 2761.51 1460.01 2698.71 1456.7H1360.02Z" stroke="#E5FFBC"/>
</svg>
